<?xml version="1.0" standalone="no"?>
<!DOCTYPE svg PUBLIC "-//W3C//DTD SVG 20010904//EN"
 "http://www.w3.org/TR/2001/REC-SVG-20010904/DTD/svg10.dtd">
<svg version="1.0" xmlns="http://www.w3.org/2000/svg"
 width="1024.000000pt" height="1024.000000pt" viewBox="0 0 1024.000000 1024.000000"
 preserveAspectRatio="xMidYMid meet">

<g transform="translate(0.000000,1024.000000) scale(0.100000,-0.100000)"
fill="#000000" stroke="none">
<path d="M4935 8314 c-16 -2 -73 -9 -125 -15 -112 -13 -401 -71 -516 -105
-102 -29 -390 -142 -481 -187 -457 -231 -877 -589 -1196 -1020 -160 -216 -350
-561 -397 -721 l-26 -90 -46 -12 c-25 -6 -66 -22 -91 -34 -53 -26 -127 -96
-127 -118 0 -30 92 -162 146 -210 l55 -50 -10 -58 c-36 -205 -40 -750 -7 -973
31 -204 120 -530 191 -696 124 -290 279 -564 450 -793 155 -209 434 -466 683
-631 399 -265 878 -440 1376 -506 158 -20 555 -20 708 0 711 97 1359 410 1847
894 343 340 614 807 755 1305 128 451 162 851 110 1319 l-15 137 53 53 c29 28
74 88 100 132 l47 80 -32 34 c-50 52 -131 100 -194 114 -49 12 -58 17 -61 38
-21 170 -301 664 -534 944 -111 134 -341 362 -458 456 -106 86 -365 261 -482
327 -103 58 -317 154 -466 208 -230 83 -504 144 -784 174 -89 9 -403 12 -473
4z m560 -220 c77 -8 190 -26 250 -40 110 -24 314 -80 322 -88 4 -4 -45 -183
-56 -202 -4 -8 -29 -5 -85 12 -114 34 -337 82 -441 95 -137 16 -549 13 -675
-6 -152 -23 -290 -52 -378 -80 -92 -29 -90 -31 -121 84 -27 100 -27 119 2 126
12 2 89 21 171 40 348 83 637 100 1011 59z m-1352 -266 c14 -51 28 -100 32
-109 5 -12 -16 -25 -97 -58 -172 -70 -454 -238 -608 -360 -127 -100 -318 -272
-396 -354 -96 -102 -275 -336 -314 -409 -14 -27 -29 -48 -34 -48 -14 0 -145
84 -146 94 0 9 73 128 143 231 53 78 211 269 307 369 254 267 605 518 940 673
74 34 138 62 141 62 3 1 17 -41 32 -91z m2209 27 c215 -94 502 -269 673 -410
107 -89 320 -300 409 -405 136 -160 333 -450 321 -470 -3 -4 -37 -25 -77 -45
-67 -35 -72 -36 -81 -19 -66 118 -221 316 -362 463 -281 292 -630 534 -996
691 l-77 33 29 85 c16 47 29 94 29 104 0 27 19 23 132 -27z m-924 -150 c170
-18 484 -87 527 -115 6 -4 45 -19 89 -34 110 -37 420 -194 521 -263 47 -32 94
-62 103 -68 38 -22 152 -109 152 -116 0 -4 -26 -41 -58 -81 -109 -136 -267
-265 -438 -354 -60 -32 -110 -58 -112 -60 -3 -2 18 -43 43 -83 6 -9 15 -24 21
-35 10 -17 19 -14 130 42 65 34 148 82 184 108 95 69 237 203 300 283 30 39
59 70 64 70 5 1 45 -34 89 -77 l80 -79 -144 -144 c-144 -144 -246 -224 -364
-284 l-60 -31 -3 -58 c-5 -86 -3 -89 61 -67 125 43 357 210 488 352 52 56 97
107 101 113 13 18 136 -133 124 -153 -3 -5 -19 -12 -35 -16 -65 -14 -62 20
-61 -656 l0 -614 -172 -33 c-95 -19 -198 -40 -228 -48 -214 -55 -483 -104
-680 -123 -118 -12 -264 -28 -325 -36 -60 -8 -159 -19 -220 -25 -130 -14 -334
-62 -390 -94 l-40 -22 -45 23 c-77 39 -219 74 -380 94 -85 10 -186 23 -225 28
-86 11 -159 18 -295 26 -157 10 -341 43 -720 131 -108 26 -215 47 -285 59 -22
3 -57 11 -77 16 l-38 10 0 511 0 512 91 -97 c148 -158 239 -225 377 -278 46
-18 20 2 -49 37 -39 19 -99 55 -133 80 -66 49 -199 175 -251 239 -30 38 -32
44 -33 128 0 48 -5 94 -11 101 -6 7 -29 21 -51 31 -22 10 -40 23 -40 28 0 5
20 35 45 65 25 31 50 63 55 71 8 13 17 7 51 -34 118 -141 264 -260 434 -357
61 -34 124 -72 141 -85 17 -13 34 -23 37 -23 4 0 7 34 7 75 0 86 -4 91 -107
151 -101 59 -260 191 -360 299 l-92 99 77 82 77 82 40 -46 c162 -189 320 -321
498 -416 57 -31 108 -56 113 -56 9 0 78 120 72 124 -2 1 -50 31 -108 66 -58
34 -130 81 -160 104 -76 56 -212 188 -273 265 l-51 64 25 19 c13 10 45 37 71
58 26 22 51 40 57 40 6 0 52 29 103 65 51 36 171 104 266 151 449 220 928 309
1400 259z m-2874 -1338 l93 -63 -11 -39 c-11 -36 -15 -40 -55 -47 -24 -4 -54
-14 -67 -23 -34 -22 -38 -20 -52 37 -6 28 -14 53 -17 56 -9 9 -53 -39 -60 -65
-19 -78 74 -217 182 -270 l56 -27 39 43 c45 51 47 63 14 81 -20 10 -34 10 -72
1 -53 -14 -65 -7 -57 30 6 34 39 49 104 49 59 0 81 -10 131 -57 l36 -35 -48
-62 c-71 -90 -86 -101 -134 -100 -57 1 -103 33 -218 151 -74 77 -98 109 -103
137 -8 42 1 98 22 140 18 34 101 126 115 126 5 0 51 -28 102 -63z m396 -516
l0 -543 -22 5 c-13 3 -54 8 -93 12 -38 3 -94 8 -122 11 l-53 5 0 115 0 114 58
0 59 0 -4 58 c-2 31 -9 79 -14 107 -10 49 -9 50 26 80 41 36 138 193 128 209
-45 73 -88 128 -112 145 l-29 21 30 63 c16 34 46 88 65 119 l34 58 24 -18 24
-17 1 -544z m4555 447 c25 -47 45 -92 45 -98 0 -7 -17 -31 -37 -55 -21 -24
-49 -62 -61 -86 l-24 -44 43 -74 c24 -41 61 -94 83 -117 40 -41 41 -44 34 -91
-3 -26 -7 -73 -7 -104 l-1 -57 53 -6 52 -7 2 -108 2 -109 -32 -5 c-59 -11
-258 -30 -262 -26 -2 2 -5 251 -8 552 l-4 549 21 8 c27 10 41 -7 101 -122z
m421 86 c33 -28 63 -66 80 -99 22 -46 25 -61 19 -109 -9 -66 -21 -81 -57 -64
-24 12 -26 19 -30 85 -3 59 -8 77 -25 95 -13 12 -25 19 -28 16 -3 -3 -9 -29
-14 -57 -4 -28 -10 -53 -13 -56 -2 -2 -26 2 -53 10 -26 8 -58 15 -70 15 -18 0
-26 10 -38 47 -9 26 -15 48 -14 48 1 1 20 15 42 32 32 25 130 81 143 83 2 0
28 -21 58 -46z m-111 -273 c70 -32 188 -116 238 -170 68 -72 97 -139 97 -223
l0 -67 -32 5 c-168 29 -169 30 -161 105 l6 57 43 -45 c68 -72 94 -40 51 62
-45 108 -155 207 -243 221 -97 14 -144 -18 -144 -99 0 -47 -25 -56 -61 -21
-15 14 -33 40 -40 58 -7 17 -17 34 -23 38 -17 11 23 59 67 79 55 24 149 25
202 0z m-5555 -43 c28 -31 25 -41 -19 -59 -34 -15 -40 -22 -51 -68 -6 -28 -17
-51 -23 -51 -7 0 -38 27 -70 60 l-57 60 41 30 c23 16 58 32 78 36 20 3 41 7
46 9 23 8 35 4 55 -17z m5941 1 c19 -7 49 -23 66 -36 l33 -24 -51 -64 c-28
-36 -54 -65 -59 -65 -15 0 -32 30 -26 46 4 11 -13 36 -54 78 -33 35 -57 66
-53 69 10 11 107 8 144 -4z m-365 -120 c-50 -55 -96 -144 -96 -183 0 -54 60
-17 116 72 32 49 37 53 46 38 16 -28 1 -105 -26 -141 -34 -44 -83 -65 -151
-65 l-58 0 7 73 c4 47 16 93 35 134 25 52 37 66 83 92 83 48 99 41 44 -20z
m-5453 3 c16 -17 14 -21 -28 -62 -40 -39 -85 -113 -85 -140 0 -19 43 -10 77
16 19 14 35 24 36 23 17 -29 25 -74 16 -86 -16 -18 -105 -43 -157 -43 l-44 0
7 63 c6 59 39 144 67 177 16 19 81 70 89 70 3 0 13 -8 22 -18z m207 -183 c49
-16 58 -26 35 -42 -17 -13 -17 -14 5 -20 33 -9 14 -27 -28 -27 -63 0 -130 63
-146 137 l-8 33 53 -35 c30 -19 69 -40 89 -46z m-100 -164 c10 -12 10 -28 1
-72 -6 -31 -11 -87 -11 -125 l0 -68 -94 0 c-52 0 -97 3 -99 8 -2 4 -1 50 2
102 l6 94 38 8 c45 9 89 31 106 52 17 20 35 20 51 1z m5428 -10 c21 -14 61
-32 90 -40 l52 -16 0 -62 c0 -34 3 -79 6 -99 l7 -38 -107 0 -106 0 -1 103 c0
56 -4 111 -9 122 -5 13 -3 26 8 38 19 21 15 22 60 -8z m-5460 -421 c21 -6 22
-11 22 -108 0 -302 80 -662 215 -968 43 -95 151 -291 186 -337 20 -26 20 -26
-70 -139 -41 -51 -35 -55 -121 88 -132 223 -251 507 -310 739 -41 161 -80 395
-86 516 -2 55 -6 126 -8 158 l-4 57 77 0 c42 0 86 -3 99 -6z m5604 -84 c-10
-306 -92 -674 -224 -1010 -56 -143 -254 -500 -277 -500 -7 0 -76 87 -104 133
-17 27 -17 27 31 100 65 95 126 219 196 393 101 254 161 537 173 822 l6 153
101 -3 101 -3 -3 -85z m-5084 44 c100 -13 205 -29 233 -35 l51 -11 -28 -19
c-38 -24 -58 -51 -102 -134 -36 -68 -37 -73 -37 -176 0 -98 3 -110 32 -169 18
-36 30 -66 28 -68 -1 -2 -29 1 -61 7 -33 5 -126 15 -207 22 -135 11 -150 14
-158 33 -9 23 -37 171 -37 196 0 8 -5 51 -10 95 -6 44 -14 129 -17 188 l-7
109 68 -7 c38 -4 151 -18 252 -31z m4704 -65 c-5 -153 -58 -477 -82 -503 -5
-5 -20 -8 -35 -8 -15 0 -29 -6 -32 -13 -3 -10 -13 -11 -36 -4 -18 5 -43 9 -57
8 -16 0 -5 -6 30 -17 30 -8 57 -19 58 -24 2 -4 11 -8 20 -8 15 1 14 3 -2 15
-15 11 -18 23 -3 13 1 -1 12 4 25 11 18 9 22 9 22 -2 0 -28 -41 -134 -53 -134
-7 0 -44 -2 -84 -3 -40 -2 -70 -7 -67 -11 2 -5 41 -6 86 -2 l80 6 -7 -24 c-16
-51 -61 -139 -69 -132 -4 4 -4 0 -1 -8 8 -21 -31 -108 -52 -116 -10 -4 -32 -7
-50 -7 -17 0 -29 -4 -26 -9 3 -5 23 -7 44 -5 55 5 57 12 -48 -159 -23 -37 -46
-74 -51 -81 -11 -17 -27 -1 -103 100 -31 41 -49 74 -45 83 3 8 1 15 -5 15 -6
0 -8 7 -5 16 3 8 2 13 -2 10 -4 -2 -14 10 -21 27 -7 18 -19 46 -27 64 -8 17
-14 38 -14 46 0 8 -7 17 -14 20 -8 3 -18 23 -21 44 -3 21 -11 49 -16 62 -8 19
-7 26 5 33 8 4 42 32 77 60 50 42 69 67 95 123 65 143 69 262 11 382 -17 37
-51 88 -74 112 -24 24 -42 46 -40 47 12 12 547 76 582 69 6 -1 9 -39 7 -96z
m-3488 -133 c17 -3 94 -10 171 -16 355 -27 682 -87 773 -142 l33 -20 49 26
c27 15 82 35 123 46 138 35 547 87 867 110 85 6 227 23 315 37 209 34 322 35
391 5 214 -96 201 -368 -20 -451 -36 -13 -154 -35 -309 -56 -550 -77 -780
-132 -993 -240 -158 -80 -294 -198 -373 -322 -18 -29 -37 -53 -41 -53 -4 0
-20 21 -35 46 -36 62 -156 187 -230 239 -98 70 -270 151 -402 189 -187 54
-396 91 -793 141 -227 29 -323 60 -388 124 -86 86 -79 245 15 333 72 69 183
90 333 63 259 -46 442 -66 439 -47 -1 4 -1 25 0 47 l2 40 21 -47 c17 -39 26
-48 52 -52z m-927 -544 c13 4 53 -26 53 -38 0 -7 -8 -35 -17 -64 l-17 -52 -45
5 c-25 4 -107 15 -181 27 -74 11 -155 20 -180 20 -25 0 -50 4 -56 8 -10 7 -34
65 -34 83 0 17 119 7 349 -27 34 -5 42 -4 36 6 -5 8 -3 11 6 8 8 -3 13 -11 12
-17 -2 -6 7 -12 20 -12 12 -1 40 -3 62 -5 l40 -3 -28 18 c-15 9 -24 21 -20 24
3 4 -1 7 -9 7 -9 0 -22 7 -29 17 -13 15 -12 15 8 5 12 -7 26 -11 30 -10z m-3
-51 c-2 -3 -12 3 -22 13 -16 17 -16 18 5 5 12 -7 20 -15 17 -18z m481 -32
c604 -62 925 -166 1142 -372 78 -74 165 -209 198 -306 26 -78 30 -138 6 -76
-16 38 -59 95 -73 95 -6 0 -8 -11 -4 -27 5 -20 4 -24 -3 -13 -19 29 -22 1 -3
-34 11 -19 21 -33 24 -31 3 3 5 -1 5 -8 0 -6 20 -55 46 -107 70 -145 66 -156
-13 -35 -88 133 -159 216 -259 299 -177 148 -395 258 -622 316 -81 21 -270 50
-449 70 -89 9 -302 41 -308 45 -1 1 9 22 22 46 13 24 32 70 42 102 11 37 23
57 33 57 8 0 105 -9 216 -21z m3074 -3 c2 -15 60 -145 78 -177 3 -5 -190 -33
-457 -65 -500 -59 -908 -294 -1148 -658 -81 -122 -93 -120 -30 5 23 46 41 89
40 96 -1 6 7 14 18 18 14 4 19 12 16 21 -3 8 -2 12 3 9 5 -3 12 -1 15 4 3 5
-1 12 -10 15 -8 3 -12 10 -9 16 3 5 -2 10 -12 11 -10 0 -13 3 -5 6 6 2 12 14
12 25 0 11 8 22 20 25 22 6 26 18 9 29 -7 4 -8 9 0 17 7 7 15 6 26 -3 23 -19
28 -6 5 15 -19 17 -20 17 -39 -6 -11 -13 -37 -57 -58 -98 -46 -89 -54 -72 -18
35 79 235 285 418 590 522 192 65 400 108 665 136 271 29 283 29 289 2z
m-3774 -66 c3 -6 -1 -7 -9 -4 -18 7 -21 14 -7 14 6 0 13 -4 16 -10z m207 -18
c10 -4 14 -12 10 -18 -5 -8 -16 -5 -37 7 -24 15 -26 19 -10 18 11 0 28 -3 37
-7z m-52 -22 c0 -5 -2 -10 -4 -10 -3 0 -8 5 -11 10 -3 6 -1 10 4 10 6 0 11 -4
11 -10z m45 -20 c3 -5 3 -15 -1 -21 -6 -11 -23 6 -24 24 0 10 18 9 25 -3z
m-130 -117 c39 -8 73 -17 77 -19 8 -5 -26 -67 -45 -82 -8 -7 -30 -5 -67 8 -30
11 -69 19 -87 20 -37 0 -73 38 -73 78 0 24 1 25 63 18 34 -4 94 -14 132 -23z
m541 -133 c416 -31 701 -120 954 -297 87 -62 228 -206 288 -295 65 -98 70
-111 25 -61 -40 43 -166 145 -218 176 l-30 18 23 -20 c15 -13 18 -21 10 -24
-10 -4 -9 -8 2 -16 8 -6 15 -19 15 -29 0 -10 6 -26 13 -35 7 -8 12 -22 10 -30
-2 -8 30 -41 72 -74 83 -66 142 -127 213 -220 51 -66 51 -85 1 -32 -99 104
-361 257 -621 363 -216 88 -383 136 -840 241 -298 68 -393 93 -393 102 0 3 17
22 38 42 20 20 51 54 67 76 17 22 51 68 78 101 l47 62 49 -19 c32 -12 101 -22
197 -29z m3322 -11 c23 -33 42 -64 42 -68 0 -3 32 -38 70 -76 39 -38 70 -72
70 -76 0 -4 -10 -9 -22 -12 -13 -3 -169 -39 -348 -80 -578 -133 -782 -198
-1055 -335 -115 -57 -289 -172 -385 -252 -41 -35 -70 -57 -64 -49 119 160 269
302 414 394 91 58 104 77 43 68 -27 -4 -31 -8 -23 -23 8 -15 5 -17 -22 -16
-25 1 -33 7 -39 27 -5 20 -2 30 13 40 62 43 81 59 72 59 -33 0 -230 -154 -310
-243 -37 -41 -43 -45 -31 -21 66 128 234 311 362 396 164 107 372 193 573 238
51 11 172 27 270 35 183 16 266 29 292 45 26 17 35 11 78 -51z m-3708 -417
c107 -28 213 -53 235 -57 22 -3 123 -27 225 -51 567 -138 959 -313 1215 -543
61 -55 222 -231 211 -231 -3 0 -59 40 -124 90 -109 82 -121 89 -148 80 -16 -4
-23 -9 -16 -9 6 -1 12 -8 12 -16 0 -8 3 -14 8 -13 8 3 54 -31 65 -49 4 -6 -52
19 -125 56 -256 129 -763 285 -1548 478 -143 34 -192 54 -176 70 3 3 15 -2 26
-12 26 -24 39 -11 15 15 -20 22 -14 26 16 10 13 -7 19 -7 19 0 0 5 -7 10 -16
10 -10 0 -14 6 -10 15 3 8 1 15 -4 15 -6 0 -10 9 -10 20 0 12 -10 25 -25 32
-13 6 -22 14 -20 18 2 4 -22 14 -55 23 -70 20 -73 20 -65 7 3 -5 1 -10 -4 -10
-19 0 -12 15 26 64 28 36 42 46 57 43 12 -3 109 -27 216 -55z m4109 -48 c50
-58 91 -110 91 -114 0 -7 -173 -52 -470 -121 -271 -63 -515 -123 -600 -149
-52 -16 -160 -47 -240 -71 -267 -78 -601 -211 -750 -299 -28 -17 -52 -30 -54
-30 -2 0 22 25 52 55 30 30 59 55 64 55 4 0 8 4 8 10 0 5 -8 6 -17 3 -16 -6
-17 -5 -3 12 19 24 -95 -52 -180 -120 -98 -78 -100 -76 -17 22 150 178 314
301 562 423 276 136 419 183 862 285 391 90 481 112 528 129 22 8 47 15 57 15
9 1 57 -46 107 -105z m-4359 -29 c0 -8 5 -15 12 -15 6 0 9 -2 6 -5 -3 -3 -13
-3 -22 1 -17 7 -22 34 -6 34 6 0 10 -7 10 -15z m6 -40 c10 -8 14 -15 8 -15 -5
0 -19 7 -30 15 -10 8 -14 15 -8 15 5 0 19 -7 30 -15z m94 -5 c0 -11 -4 -20
-10 -20 -5 0 -10 9 -10 20 0 11 5 20 10 20 6 0 10 -9 10 -20z m1659 -69 c9
-16 8 -18 -8 -14 -12 3 -17 11 -14 19 7 18 10 18 22 -5z m2171 -421 c-101 -71
-187 -130 -191 -130 -4 0 -11 5 -14 10 -3 6 -12 10 -18 10 -7 0 -4 -7 6 -15
17 -12 14 -16 -40 -51 -32 -20 -122 -70 -199 -111 -125 -65 -145 -72 -168 -63
-38 14 -46 12 -17 -4 l24 -14 -23 -7 c-29 -9 -41 7 -82 103 -33 75 -33 76 -12
68 10 -4 21 0 28 9 6 8 45 28 86 44 41 16 144 58 228 95 84 37 158 63 164 60
6 -4 8 -3 5 3 -6 10 59 43 127 64 36 11 249 57 270 58 5 1 -73 -57 -174 -129z
m-3627 99 c20 -6 37 -14 37 -19 0 -6 5 -10 11 -10 5 0 7 4 4 10 -3 5 0 8 7 6
7 -2 43 -12 81 -21 37 -9 67 -22 67 -28 0 -6 3 -8 6 -4 10 9 64 -14 57 -26 -3
-5 -2 -7 4 -4 6 4 71 -19 144 -49 74 -31 186 -78 249 -104 63 -26 114 -52 113
-58 -1 -5 5 -13 13 -16 12 -5 15 -2 10 11 -5 13 -4 15 4 7 8 -8 7 -21 -4 -48
-15 -36 -29 -45 -41 -26 -3 6 -12 10 -18 10 -7 0 -2 -8 11 -18 23 -18 23 -18
6 -56 -16 -32 -22 -36 -44 -31 -63 14 -469 229 -457 242 3 2 22 -7 42 -22 43
-29 70 -34 34 -6 -34 26 -67 42 -82 40 -28 -5 -241 146 -230 164 4 6 1 7 -6 3
-14 -9 -53 22 -45 35 3 5 -1 7 -8 4 -7 -3 -24 4 -38 15 l-25 21 30 -7 c17 -3
47 -10 68 -15z m2127 -202 c0 -2 -20 -18 -45 -36 -25 -18 -45 -30 -45 -27 0 6
79 66 87 66 1 0 3 -1 3 -3z m-879 -270 c118 -47 227 -89 241 -92 14 -4 35 -15
46 -26 13 -11 28 -16 38 -12 13 5 15 3 9 -7 -5 -8 -4 -11 2 -7 10 6 50 -3 98
-23 11 -4 54 -20 96 -34 72 -24 80 -25 117 -12 22 8 50 12 63 9 13 -4 20 -2
16 4 -3 5 28 21 69 35 41 15 72 23 69 18 -3 -4 18 -7 46 -7 39 1 46 3 29 9
-13 5 -31 6 -41 3 -29 -10 -22 3 10 20 29 15 61 12 61 -6 0 -12 70 -40 82 -33
5 3 16 0 24 -7 8 -6 17 -9 21 -6 3 4 -11 14 -33 22 -21 9 -54 24 -72 33 -27
14 -30 18 -15 23 18 5 61 24 138 59 22 10 50 21 62 24 23 7 40 -8 22 -20 -8
-4 -9 -3 -5 4 8 14 4 15 -18 6 -9 -3 -13 -11 -9 -17 4 -6 -2 -8 -15 -5 -12 4
-20 2 -17 -2 8 -13 78 -6 83 8 2 7 13 12 25 12 20 0 20 0 1 14 -10 8 -16 18
-11 22 4 4 7 2 7 -4 0 -7 7 -12 15 -12 8 0 15 -4 15 -10 0 -5 6 -7 14 -4 8 3
23 1 33 -5 15 -9 13 -10 -16 -11 -33 0 -34 -1 -15 -15 22 -16 38 -20 29 -6 -3
5 4 12 15 16 11 4 18 11 15 16 -4 5 1 9 9 9 9 0 16 5 16 11 0 6 -16 10 -37 8
-60 -3 -83 0 -83 12 0 6 7 8 15 5 8 -3 23 -8 33 -11 16 -6 16 -5 0 6 -14 11
-8 16 44 37 50 20 62 22 70 11 8 -11 9 -10 4 4 -5 16 -2 18 25 21 11 1 89
-155 83 -166 -9 -15 -164 -59 -185 -53 -14 5 -19 3 -15 -3 9 -14 -239 -72
-377 -88 -41 -5 -62 -3 -75 7 -15 13 -16 12 -4 -3 12 -15 6 -17 -65 -20 -43
-2 -84 1 -92 7 -11 7 -13 7 -7 -2 5 -10 -16 -13 -94 -13 -80 0 -102 3 -106 15
-4 8 -13 15 -21 15 -8 0 -11 -4 -8 -10 4 -6 -19 -10 -62 -9 -45 1 -60 3 -43 8
15 4 -8 7 -56 7 -54 -1 -87 4 -97 13 -9 7 -23 11 -32 8 -28 -11 -398 69 -484
105 l-31 13 25 54 c21 45 27 51 40 41 9 -7 18 -10 22 -7 3 4 -2 9 -11 13 -9 3
-16 10 -16 15 0 18 33 60 44 56 6 -3 108 -43 227 -90z"/>
<path d="M5041 7624 c-228 -61 -383 -276 -368 -509 9 -143 72 -262 184 -347
86 -64 157 -89 273 -95 117 -7 187 7 283 55 155 77 245 213 255 387 8 151 -28
257 -122 362 -121 133 -330 194 -505 147z m242 -178 c132 -55 206 -149 215
-277 12 -173 -98 -304 -278 -329 -148 -21 -275 43 -341 172 -34 65 -38 185 -9
258 63 161 253 242 413 176z"/>
<path d="M4177 6493 c-20 -36 -35 -68 -33 -71 3 -2 67 -26 143 -52 168 -58
412 -116 550 -129 106 -11 149 -8 195 16 28 13 78 78 78 99 0 7 -37 14 -102
18 -263 18 -519 74 -720 157 -39 16 -71 29 -72 29 0 0 -18 -30 -39 -67z"/>
<path d="M6085 6551 c-19 -16 -222 -81 -346 -111 -152 -36 -283 -57 -407 -66
-51 -4 -95 -10 -97 -14 -2 -4 9 -27 24 -52 41 -64 93 -83 198 -73 193 17 442
77 636 152 108 42 105 36 54 121 -31 51 -44 60 -62 43z"/>
<path d="M4082 6154 l3 -69 127 -42 c155 -52 427 -108 603 -123 185 -16 522
-14 711 4 180 18 414 61 544 102 47 14 110 34 140 43 l55 17 3 67 c2 37 1 67
-1 67 -2 0 -43 -14 -93 -30 -150 -52 -382 -108 -544 -132 -137 -20 -191 -23
-465 -22 -424 0 -592 25 -935 136 -69 22 -131 43 -138 46 -10 3 -12 -11 -10
-64z"/>
<path d="M7050 6129 c-25 -22 -85 -66 -133 -99 -103 -70 -100 -80 5 -15 75 46
187 139 178 148 -3 3 -25 -13 -50 -34z"/>
<path d="M6755 5939 c-16 -10 -25 -19 -20 -19 6 0 24 9 40 20 17 11 26 20 20
19 -5 0 -23 -9 -40 -20z"/>
<path d="M4140 5692 c0 -11 288 -84 425 -108 22 -3 48 -11 57 -15 10 -6 19 -5
23 1 3 5 4 10 1 10 -20 0 -419 93 -449 105 -42 17 -57 19 -57 7z"/>
<path d="M6175 5690 c-19 -8 -19 -9 2 -9 12 -1 25 4 28 9 7 12 -2 12 -30 0z"/>
<path d="M6105 5670 c-28 -7 -28 -8 -5 -9 14 0 32 4 40 9 17 11 8 11 -35 0z"/>
<path d="M5900 5624 c-80 -19 -160 -35 -177 -37 -34 -2 -47 -17 -15 -17 22 0
274 58 327 75 70 23 14 15 -135 -21z"/>
<path d="M4943 5633 c9 -2 23 -2 30 0 6 3 -1 5 -18 5 -16 0 -22 -2 -12 -5z"/>
<path d="M5048 5633 c6 -2 18 -2 25 0 6 3 1 5 -13 5 -14 0 -19 -2 -12 -5z"/>
<path d="M5168 5633 c18 -2 45 -2 60 0 15 2 0 4 -33 4 -33 0 -45 -2 -27 -4z"/>
<path d="M5308 5633 c12 -2 30 -2 40 0 9 3 -1 5 -23 4 -22 0 -30 -2 -17 -4z"/>
<path d="M6838 5485 c-36 -25 -114 -66 -172 -91 -58 -26 -106 -51 -106 -55 0
-11 86 22 175 68 63 32 185 111 185 119 0 10 -20 -1 -82 -41z"/>
<path d="M3390 5516 c0 -4 30 -23 100 -67 49 -30 146 -78 200 -99 62 -25 281
-82 287 -76 2 2 -33 14 -79 26 -46 12 -101 30 -123 40 -22 9 -71 30 -110 45
-38 15 -113 51 -166 81 -90 51 -109 60 -109 50z"/>
<path d="M5940 5223 c-34 -5 -68 -23 -74 -39 -6 -15 32 -6 82 20 30 15 42 28
25 25 -5 -1 -19 -4 -33 -6z"/>
<path d="M4385 5211 c24 -8 62 -25 133 -59 29 -13 55 -23 57 -20 3 3 -13 13
-35 23 -22 10 -42 26 -45 35 -4 12 -20 19 -52 24 -59 8 -86 7 -58 -3z"/>
<path d="M5835 5160 c-3 -5 -1 -10 4 -10 6 0 11 5 11 10 0 6 -2 10 -4 10 -3 0
-8 -4 -11 -10z"/>
<path d="M2480 5790 c0 -5 5 -10 11 -10 5 0 7 5 4 10 -3 6 -8 10 -11 10 -2 0
-4 -4 -4 -10z"/>
<path d="M7397 4519 c7 -7 15 -10 18 -7 3 3 -2 9 -12 12 -14 6 -15 5 -6 -5z"/>
<path d="M7455 4510 c10 -11 23 -20 28 -20 6 0 1 9 -11 20 -12 11 -24 20 -28
20 -4 0 1 -9 11 -20z"/>
<path d="M7360 4493 c0 -4 14 -16 30 -25 39 -22 39 -15 0 12 -16 12 -30 18
-30 13z"/>
<path d="M7447 4475 c3 -8 10 -15 15 -15 5 0 23 -9 39 -21 16 -11 35 -18 42
-16 6 3 -3 11 -20 18 -39 16 -41 24 -10 34 14 4 18 8 9 12 -8 3 -18 1 -24 -5
-7 -7 -19 -7 -34 -2 -18 7 -22 6 -17 -5z"/>
<path d="M7520 4460 c0 -5 9 -10 20 -10 11 0 20 5 20 10 0 6 -9 10 -20 10 -11
0 -20 -4 -20 -10z"/>
<path d="M7330 4380 c0 -5 7 -10 15 -10 8 0 15 5 15 10 0 6 -7 10 -15 10 -8 0
-15 -4 -15 -10z"/>
<path d="M7273 4373 c9 -2 23 -2 30 0 6 3 -1 5 -18 5 -16 0 -22 -2 -12 -5z"/>
<path d="M7090 4351 c-14 -4 -20 -10 -15 -13 10 -6 55 7 55 17 0 6 -7 5 -40
-4z"/>
<path d="M7178 4353 c7 -3 16 -2 19 1 4 3 -2 6 -13 5 -11 0 -14 -3 -6 -6z"/>
<path d="M7048 4323 c7 -3 16 -2 19 1 4 3 -2 6 -13 5 -11 0 -14 -3 -6 -6z"/>
<path d="M7448 4283 c7 -3 16 -2 19 1 4 3 -2 6 -13 5 -11 0 -14 -3 -6 -6z"/>
<path d="M7190 4080 c0 -11 48 -25 56 -17 3 2 -9 9 -25 15 -18 7 -31 7 -31 2z"/>
<path d="M7303 4083 c9 -2 23 -2 30 0 6 3 -1 5 -18 5 -16 0 -22 -2 -12 -5z"/>
<path d="M7245 3962 c-39 -8 -36 -19 5 -17 22 1 43 5 46 7 7 8 -28 15 -51 10z"/>
<path d="M5103 4629 c-78 -39 -130 -122 -119 -192 30 -188 240 -249 352 -102
45 60 42 177 -7 239 -27 35 -109 76 -151 76 -18 0 -52 -9 -75 -21z m97 -64 c0
-35 0 -35 46 -35 59 0 55 -24 -4 -28 -24 -2 -42 -8 -42 -15 0 -7 -3 -22 -6
-34 -6 -21 -3 -23 40 -23 39 0 46 -3 46 -20 0 -17 -7 -20 -39 -20 -37 0 -40
-2 -43 -32 -2 -22 -9 -34 -20 -36 -15 -3 -18 4 -18 32 0 35 -1 36 -39 36 -42
0 -63 16 -40 31 8 5 29 9 47 9 30 0 32 2 32 35 0 35 0 35 -45 35 -39 0 -45 3
-45 21 0 18 4 20 45 13 l45 -6 0 36 c0 29 4 36 20 36 16 0 20 -7 20 -35z"/>
<path d="M4900 3795 c0 -2 10 -10 23 -16 20 -11 21 -11 8 4 -13 16 -31 23 -31
12z"/>
<path d="M4950 3750 c0 -5 10 -15 23 -21 22 -12 22 -12 3 10 -21 23 -26 26
-26 11z"/>
<path d="M4970 3676 c0 -2 7 -6 15 -10 8 -3 15 -1 15 4 0 6 -7 10 -15 10 -8 0
-15 -2 -15 -4z"/>
<path d="M5365 3619 c-4 -6 -5 -12 -2 -15 2 -3 7 2 10 11 7 17 1 20 -8 4z"/>
<path d="M5710 3449 c0 -5 5 -7 10 -4 6 3 10 8 10 11 0 2 -4 4 -10 4 -5 0 -10
-5 -10 -11z"/>
<path d="M3120 3421 c8 -6 21 -11 29 -11 8 0 22 -7 31 -15 12 -11 24 -13 41
-6 23 8 22 9 -16 19 -78 21 -101 24 -85 13z"/>
<path d="M3246 3381 c-5 -7 -1 -8 10 -4 13 5 15 3 9 -7 -6 -10 -2 -11 19 -6
22 5 29 3 33 -13 7 -26 32 -31 63 -12 22 15 24 15 17 -2 -7 -18 8 -24 18 -7 4
6 11 8 16 5 5 -4 9 -2 9 3 0 4 -33 16 -72 25 -40 10 -83 20 -94 23 -12 3 -25
1 -28 -5z m119 -31 c3 -5 2 -10 -4 -10 -5 0 -13 5 -16 10 -3 6 -2 10 4 10 5 0
13 -4 16 -10z"/>
<path d="M3463 3329 c9 -5 17 -16 17 -24 0 -15 27 -45 40 -45 5 0 7 7 4 15 -4
8 -12 15 -20 15 -8 0 -14 5 -14 11 0 10 54 7 120 -7 14 -3 22 -2 18 1 -7 7
-153 44 -173 44 -5 0 -2 -4 8 -10z"/>
<path d="M3265 3310 c3 -5 11 -10 16 -10 6 0 7 5 4 10 -3 6 -11 10 -16 10 -6
0 -7 -4 -4 -10z"/>
<path d="M3315 3310 c3 -5 10 -10 16 -10 5 0 9 5 9 10 0 6 -7 10 -16 10 -8 0
-12 -4 -9 -10z"/>
<path d="M3570 3275 c7 -8 17 -15 22 -15 6 0 5 7 -2 15 -7 8 -17 15 -22 15 -6
0 -5 -7 2 -15z"/>
<path d="M3695 3275 c22 -8 49 -13 60 -13 11 0 -2 6 -30 14 -63 17 -84 16 -30
-1z"/>
<path d="M3320 3264 c0 -8 5 -12 10 -9 6 4 8 11 5 16 -9 14 -15 11 -15 -7z"/>
<path d="M3345 3240 c3 -5 10 -10 16 -10 5 0 9 5 9 10 0 6 -7 10 -16 10 -8 0
-12 -4 -9 -10z"/>
<path d="M3818 3243 c7 -3 16 -2 19 1 4 3 -2 6 -13 5 -11 0 -14 -3 -6 -6z"/>
<path d="M3458 3208 c6 -6 18 -8 28 -6 14 3 12 5 -9 10 -19 3 -25 2 -19 -4z"/>
<path d="M4810 2857 c0 -6 78 -57 87 -57 4 0 3 4 -2 8 -16 14 -85 54 -85 49z"/>
<path d="M5530 2859 c-22 -18 -22 -19 -3 -10 12 6 25 16 28 21 9 15 3 12 -25
-11z"/>
<path d="M6740 2892 c0 -5 9 -17 20 -27 11 -10 20 -15 20 -12 0 4 -9 16 -20
27 -11 11 -20 16 -20 12z"/>
<path d="M6730 2845 c13 -16 71 -47 77 -42 1 2 -9 10 -25 18 -15 8 -31 20 -35
26 -4 7 -13 13 -19 13 -7 0 -6 -5 2 -15z"/>
<path d="M6584 2825 c-17 -13 -17 -14 -1 -15 9 0 17 -5 17 -11 0 -5 5 -7 11
-3 8 4 7 9 -2 15 -12 8 -11 11 1 19 8 5 10 10 4 10 -5 0 -19 -7 -30 -15z"/>
<path d="M6826 2828 c3 -4 9 -8 15 -8 5 0 9 4 9 8 0 5 -7 9 -15 9 -8 0 -12 -4
-9 -9z"/>
<path d="M6707 2823 c-8 -12 30 -29 40 -19 4 3 -1 6 -9 6 -9 0 -18 5 -20 12
-3 9 -6 9 -11 1z"/>
<path d="M6638 2813 c7 -3 16 -2 19 1 4 3 -2 6 -13 5 -11 0 -14 -3 -6 -6z"/>
<path d="M6500 2794 l-35 -14 35 5 c53 8 54 8 75 0 l20 -8 -20 16 c-24 20 -30
20 -75 1z"/>
<path d="M6620 2786 c0 -2 7 -6 15 -10 8 -3 15 -1 15 4 0 6 -7 10 -15 10 -8 0
-15 -2 -15 -4z"/>
<path d="M6445 2770 c3 -5 11 -10 16 -10 6 0 7 5 4 10 -3 6 -11 10 -16 10 -6
0 -7 -4 -4 -10z"/>
<path d="M6510 2760 c0 -13 18 -22 24 -11 3 5 -1 11 -9 15 -8 3 -15 1 -15 -4z"/>
<path d="M6598 2763 c7 -3 16 -2 19 1 4 3 -2 6 -13 5 -11 0 -14 -3 -6 -6z"/>
<path d="M6680 2755 c14 -8 30 -14 35 -14 6 0 -1 6 -15 14 -14 8 -29 14 -35
14 -5 0 1 -6 15 -14z"/>
<path d="M6380 2740 c0 -5 7 -10 16 -10 8 0 12 5 9 10 -3 6 -10 10 -16 10 -5
0 -9 -4 -9 -10z"/>
<path d="M6350 2730 c0 -5 5 -10 11 -10 5 0 7 5 4 10 -3 6 -8 10 -11 10 -2 0
-4 -4 -4 -10z"/>
<path d="M6310 2720 c-9 -6 -10 -10 -3 -10 6 0 15 5 18 10 8 12 4 12 -15 0z"/>
<path d="M6600 2719 c0 -5 5 -7 10 -4 6 3 10 8 10 11 0 2 -4 4 -10 4 -5 0 -10
-5 -10 -11z"/>
<path d="M3360 2930 c0 -5 12 -17 28 -27 15 -9 39 -28 54 -41 14 -13 31 -21
37 -18 7 4 9 1 5 -8 -5 -13 29 -33 49 -28 4 1 21 -5 37 -13 17 -9 30 -12 30
-7 0 13 -68 43 -72 31 -2 -5 -12 -2 -23 6 -17 15 -18 16 -2 11 11 -3 16 -2 12
4 -3 6 -3 10 1 10 17 0 164 -75 164 -83 0 -5 -8 -6 -17 -2 -10 4 -27 9 -38 12
-20 4 -20 4 -1 -11 11 -9 25 -16 31 -16 6 0 20 -8 31 -18 25 -22 138 -82 155
-82 8 0 2 8 -13 18 -29 17 -38 42 -15 42 6 0 -8 10 -33 22 -25 12 -46 26 -48
30 -2 4 -10 8 -17 8 -7 0 -44 18 -83 40 -38 22 -74 40 -81 40 -6 0 -11 5 -11
10 0 12 37 14 42 3 4 -11 145 -83 160 -83 13 0 -67 50 -127 80 -16 8 -33 19
-37 25 -4 5 -17 4 -32 -5 -21 -11 -31 -11 -53 -1 l-28 12 25 -22 c18 -15 20
-19 7 -15 -10 3 -22 6 -27 6 -5 0 -15 6 -22 13 -7 7 -22 18 -33 25 -25 14 -1
16 28 1 21 -9 20 -9 -2 11 -18 15 -27 18 -37 9 -11 -9 -15 -7 -20 5 -7 17 -24
22 -24 6z m370 -189 c3 -3 17 -12 33 -20 23 -13 37 -31 22 -31 -7 0 -48 23
-55 31 -3 3 -16 13 -30 23 l-25 18 25 -7 c14 -4 27 -10 30 -14z"/>
<path d="M3435 2930 c3 -5 10 -10 16 -10 5 0 9 5 9 10 0 6 -7 10 -16 10 -8 0
-12 -4 -9 -10z"/>
<path d="M3644 2861 c3 -5 16 -11 28 -14 22 -6 22 -5 4 8 -22 17 -40 20 -32 6z"/>
<path d="M3714 2825 c8 -8 21 -15 28 -15 8 1 6 6 -6 15 -26 20 -42 19 -22 0z"/>
<path d="M3760 2803 c1 -5 24 -19 53 -32 29 -13 64 -33 80 -43 15 -11 27 -15
27 -10 0 6 -6 13 -12 16 -13 6 7 3 52 -9 19 -5 16 -2 -10 13 -24 13 -39 17
-47 10 -13 -11 -36 -1 -28 12 3 4 -3 7 -13 6 -9 0 -16 4 -15 10 1 7 -5 10 -16
7 -9 -2 -23 3 -30 11 -14 16 -41 22 -41 9z"/>
<path d="M3774 2755 c10 -8 24 -11 29 -8 6 4 2 10 -9 14 -31 12 -40 9 -20 -6z"/>
<path d="M3811 2736 c14 -13 69 -35 69 -28 0 9 -44 32 -62 32 -6 0 -9 -2 -7
-4z"/>
<path d="M4000 2706 c0 -2 11 -6 25 -8 14 -3 25 -1 25 3 0 5 -11 9 -25 9 -14
0 -25 -2 -25 -4z"/>
<path d="M3830 2691 c0 -4 11 -13 25 -19 14 -6 25 -8 25 -4 0 4 -11 12 -25 19
-14 6 -25 8 -25 4z"/>
<path d="M3914 2685 c11 -8 25 -15 30 -15 6 0 2 7 -8 15 -11 8 -25 15 -30 15
-6 0 -2 -7 8 -15z"/>
<path d="M3727 2679 c7 -7 15 -10 18 -7 3 3 -2 9 -12 12 -14 6 -15 5 -6 -5z"/>
<path d="M4020 2680 c0 -5 7 -10 16 -10 8 0 12 5 9 10 -3 6 -10 10 -16 10 -5
0 -9 -4 -9 -10z"/>
<path d="M4068 2683 c7 -3 16 -2 19 1 4 3 -2 6 -13 5 -11 0 -14 -3 -6 -6z"/>
<path d="M3900 2663 c0 -8 48 -36 83 -47 31 -10 8 13 -31 30 -20 10 -40 19
-44 21 -5 2 -8 0 -8 -4z"/>
<path d="M3988 2650 c12 -11 29 -20 39 -19 14 0 13 2 -4 9 -13 5 -23 14 -23
20 0 5 -8 10 -17 10 -14 0 -14 -3 5 -20z"/>
<path d="M3790 2646 c0 -2 7 -7 16 -10 8 -3 12 -2 9 4 -6 10 -25 14 -25 6z"/>
<path d="M4050 2646 c0 -2 14 -9 31 -15 27 -9 30 -9 19 4 -11 13 -50 22 -50
11z"/>
<path d="M3830 2631 c0 -5 6 -11 13 -14 6 -3 28 -12 49 -21 33 -14 36 -14 34
0 -1 9 -11 21 -22 26 -18 9 -18 9 0 -6 29 -24 -2 -20 -41 4 -18 11 -33 16 -33
11z"/>
<path d="M3960 2592 c0 -7 42 -32 55 -32 13 0 3 18 -12 24 -10 3 -24 9 -30 12
-7 3 -13 2 -13 -4z"/>
<path d="M4034 2585 c11 -8 29 -15 40 -15 18 0 16 3 -8 15 -36 19 -57 19 -32
0z"/>
<path d="M4038 2553 c7 -3 16 -2 19 1 4 3 -2 6 -13 5 -11 0 -14 -3 -6 -6z"/>
<path d="M4388 2563 c7 -3 16 -2 19 1 4 3 -2 6 -13 5 -11 0 -14 -3 -6 -6z"/>
<path d="M5929 2540 c13 -11 28 -20 33 -20 6 0 -1 9 -15 20 -33 26 -49 26 -18
0z"/>
<path d="M4405 2520 c27 -12 43 -12 25 0 -8 5 -22 9 -30 9 -10 0 -8 -3 5 -9z"/>
<path d="M4340 2510 c0 -6 7 -10 15 -10 8 0 15 2 15 4 0 2 -7 6 -15 10 -8 3
-15 1 -15 -4z"/>
<path d="M4310 2490 c0 -5 5 -10 10 -10 6 0 10 5 10 10 0 6 -4 10 -10 10 -5 0
-10 -4 -10 -10z"/>
<path d="M4387 2489 c7 -7 15 -10 18 -7 3 3 -2 9 -12 12 -14 6 -15 5 -6 -5z"/>
<path d="M4600 2480 c0 -12 28 -25 36 -17 3 3 -4 10 -15 17 -15 7 -21 7 -21 0z"/>
<path d="M4270 2471 c0 -10 30 -24 37 -17 3 2 -5 9 -16 16 -12 6 -21 7 -21 1z"/>
<path d="M4490 2476 c0 -2 7 -7 16 -10 8 -3 12 -2 9 4 -6 10 -25 14 -25 6z"/>
<path d="M5804 2472 c4 -7 1 -12 -6 -12 -21 0 12 -19 55 -31 21 -5 45 -13 54
-16 10 -4 14 -2 10 4 -4 6 -23 14 -42 17 -19 4 -35 11 -35 16 0 5 -7 6 -17 3
-10 -4 -14 -2 -9 5 3 6 1 14 -5 18 -8 4 -9 3 -5 -4z"/>
<path d="M4557 2455 c-18 -13 -18 -14 2 -24 29 -16 38 -13 15 4 -19 14 -19 14
3 15 12 0 25 -4 28 -10 3 -5 11 -10 17 -10 6 0 -1 9 -15 20 -30 23 -27 23 -50
5z"/>
<path d="M4675 2450 c11 -5 27 -9 35 -9 13 -1 13 0 0 9 -8 5 -24 9 -35 9 l-20
0 20 -9z"/>
<path d="M5650 2410 c18 -14 20 -20 9 -20 -8 0 -24 7 -35 15 -23 17 -44 19
-44 4 0 -5 5 -7 11 -4 6 4 16 1 22 -7 7 -8 25 -20 41 -26 24 -11 28 -10 23 2
-9 23 18 40 43 26 12 -6 31 -9 43 -7 18 4 17 5 -5 6 -31 1 -38 17 -10 24 14 4
14 5 -3 6 -11 0 -31 -5 -45 -12 -22 -11 -28 -11 -38 0 -7 7 -18 13 -25 13 -7
0 -1 -9 13 -20z"/>
<path d="M5788 2424 c6 -3 10 -9 8 -13 -3 -4 0 -8 7 -8 7 0 26 -3 42 -7 29 -7
29 -6 9 8 -11 8 -34 17 -50 20 -16 4 -23 3 -16 0z"/>
<path d="M5978 2413 c7 -3 16 -2 19 1 4 3 -2 6 -13 5 -11 0 -14 -3 -6 -6z"/>
<path d="M4668 2393 c20 -10 36 -13 42 -7 5 5 1 9 -13 10 -12 0 -31 4 -42 8
-11 4 -5 -1 13 -11z"/>
<path d="M4770 2400 c8 -5 23 -10 32 -10 9 0 21 -6 25 -12 13 -20 46 -45 71
-52 26 -8 30 9 5 18 -10 3 -36 19 -58 36 -22 16 -51 29 -65 30 -20 0 -22 -2
-10 -10z"/>
<path d="M4588 2393 c6 -2 18 -2 25 0 6 3 1 5 -13 5 -14 0 -19 -2 -12 -5z"/>
<path d="M4538 2378 c5 -5 16 -8 23 -6 8 3 3 7 -10 11 -17 4 -21 3 -13 -5z"/>
<path d="M5705 2381 c19 -8 19 -8 0 -19 -18 -11 -18 -11 5 -8 14 3 32 5 40 6
19 1 -29 29 -50 29 -10 0 -8 -3 5 -8z"/>
<path d="M5798 2373 c7 -3 16 -2 19 1 4 3 -2 6 -13 5 -11 0 -14 -3 -6 -6z"/>
<path d="M4796 2355 c4 -8 11 -15 17 -15 6 0 2 -7 -9 -15 -17 -13 -17 -14 -1
-15 9 0 17 5 17 11 0 6 6 9 13 6 6 -2 11 -10 10 -16 -3 -13 43 -15 51 -2 3 5
-7 11 -22 14 -15 3 -38 15 -51 26 -29 25 -32 26 -25 6z"/>
<path d="M4936 2342 c19 -19 54 -18 54 0 0 5 -9 6 -20 3 -11 -4 -20 -2 -20 4
0 6 -8 11 -17 11 -15 0 -14 -2 3 -18z"/>
<path d="M5545 2350 c3 -5 8 -10 11 -10 2 0 4 5 4 10 0 6 -5 10 -11 10 -5 0
-7 -4 -4 -10z"/>
<path d="M5495 2340 c-4 -6 6 -10 22 -10 22 0 25 2 13 10 -19 12 -27 12 -35 0z"/>
<path d="M5012 2321 c-13 -3 -23 -10 -22 -16 1 -11 40 -8 53 5 13 12 -5 18
-31 11z"/>
<path d="M5385 2300 c-4 -6 3 -10 14 -10 25 0 27 6 6 13 -8 4 -17 2 -20 -3z"/>
<path d="M1816 5256 c3 -9 13 -16 22 -16 8 0 13 1 11 3 -2 1 -12 9 -22 16 -15
12 -17 12 -11 -3z"/>
<path d="M1819 5209 c13 -11 26 -17 29 -14 7 6 -29 34 -43 34 -5 0 1 -9 14
-20z"/>
<path d="M1860 4980 c-23 -7 -23 -8 -3 -9 12 -1 25 4 28 9 3 6 5 10 3 9 -2 -1
-14 -5 -28 -9z"/>
<path d="M1880 4881 c0 -5 7 -12 16 -15 14 -5 15 -4 4 9 -14 17 -20 19 -20 6z"/>
<path d="M1821 4854 c0 -11 3 -14 6 -6 3 7 2 16 -1 19 -3 4 -6 -2 -5 -13z"/>
<path d="M1851 4689 c-1 -27 24 -58 36 -45 3 3 1 6 -5 6 -6 0 -16 15 -21 33
-9 30 -9 30 -10 6z"/>
<path d="M1886 4534 c-5 -13 -3 -14 6 -6 7 5 24 12 38 15 22 4 21 4 -6 6 -21
1 -34 -5 -38 -15z"/>
<path d="M1926 4371 c-4 -5 3 -7 14 -4 23 6 26 13 6 13 -8 0 -17 -4 -20 -9z"/>
<path d="M1988 4345 c2 -14 6 -25 8 -25 2 0 4 11 4 25 0 14 -4 25 -9 25 -4 0
-6 -11 -3 -25z"/>
<path d="M2055 4000 c27 -12 35 -12 35 0 0 6 -12 10 -27 9 -25 0 -26 -1 -8 -9z"/>
<path d="M2168 3832 c-3 -12 -17 -26 -30 -31 -23 -10 -23 -10 -1 -10 23 -1 47
31 40 52 -2 6 -6 1 -9 -11z"/>
<path d="M2198 3713 c6 -2 18 -2 25 0 6 3 1 5 -13 5 -14 0 -19 -2 -12 -5z"/>
<path d="M2203 3643 c9 -2 23 -2 30 0 6 3 -1 5 -18 5 -16 0 -22 -2 -12 -5z"/>
<path d="M2262 3558 c-7 -7 -12 -19 -11 -27 0 -11 3 -10 8 4 4 11 19 23 32 26
21 6 21 7 4 8 -12 1 -26 -4 -33 -11z"/>
<path d="M2523 3244 c2 -12 0 -29 -5 -38 -5 -9 -7 -16 -4 -16 15 0 26 41 16
58 -10 15 -11 15 -7 -4z"/>
<path d="M2571 3074 c-1 -21 5 -34 15 -38 13 -5 14 -3 6 6 -5 7 -12 24 -15 38
-4 22 -4 21 -6 -6z"/>
<path d="M2964 2686 c-3 -8 -4 -23 -2 -33 3 -11 6 -6 9 15 6 34 2 42 -7 18z"/>
<path d="M2990 2690 c0 -5 7 -7 15 -4 8 4 15 8 15 10 0 2 -7 4 -15 4 -8 0 -15
-4 -15 -10z"/>
<path d="M3478 2353 c7 -3 16 -2 19 1 4 3 -2 6 -13 5 -11 0 -14 -3 -6 -6z"/>
<path d="M3656 2244 c-8 -21 -8 -24 3 -24 5 0 11 9 14 20 6 24 -8 27 -17 4z"/>
<path d="M3853 2153 c9 -2 23 -2 30 0 6 3 -1 5 -18 5 -16 0 -22 -2 -12 -5z"/>
<path d="M3886 2114 c-11 -7 -16 -17 -13 -21 4 -4 15 1 24 10 22 21 14 30 -11
11z"/>
<path d="M4087 2059 c4 -13 8 -18 11 -10 2 7 -1 18 -6 23 -8 8 -9 4 -5 -13z"/>
<path d="M6323 2056 c-4 -7 -21 -18 -38 -24 l-30 -11 34 2 c25 1 36 8 42 25 9
24 4 30 -8 8z"/>
<path d="M5887 1983 c-8 -8 -9 -43 -1 -43 9 0 36 30 27 31 -4 1 3 5 17 9 24 8
24 8 -6 9 -17 1 -34 -2 -37 -6z"/>
<path d="M4608 1933 c-31 -37 14 -82 48 -48 14 14 15 20 4 41 -16 28 -31 31
-52 7z m38 -19 c-3 -9 -6 -20 -6 -25 0 -4 -7 -6 -15 -3 -24 9 -19 44 6 44 15
0 19 -4 15 -16z"/>
<path d="M5694 1925 c-4 -14 -4 -29 0 -32 3 -4 6 4 6 16 0 12 4 20 8 17 5 -3
9 1 9 9 0 24 -16 17 -23 -10z"/>
<path d="M4410 1915 c7 -8 21 -15 32 -15 17 0 18 2 4 15 -8 8 -22 15 -32 15
-13 0 -14 -3 -4 -15z"/>
<path d="M5507 1902 c-22 -24 -22 -39 0 -21 9 8 24 13 35 11 11 -2 18 3 18 12
0 22 -33 20 -53 -2z"/>
<path d="M4987 1892 c-10 -10 -17 -25 -17 -32 0 -7 11 -1 25 14 14 15 25 29
25 32 0 10 -18 3 -33 -14z"/>
<path d="M5308 1903 c-21 -5 -24 -33 -4 -33 8 0 16 -7 20 -15 8 -21 24 -19 31
5 6 20 -10 51 -24 49 -3 -1 -14 -3 -23 -6z"/>
<path d="M4841 1891 c-7 -5 -26 -7 -43 -5 -20 3 -28 0 -26 -8 7 -19 78 -20 85
-2 7 19 1 25 -16 15z"/>
<path d="M5571 1874 c0 -11 3 -14 6 -6 3 7 2 16 -1 19 -3 4 -6 -2 -5 -13z"/>
<path d="M5008 1813 c7 -3 16 -2 19 1 4 3 -2 6 -13 5 -11 0 -14 -3 -6 -6z"/>
</g>
</svg>
